<svg viewBox="0 0 520 560" xmlns="http://www.w3.org/2000/svg" role="img" aria-label="MIARMA MED Training Center">
  <defs>
    <linearGradient id="gold" x1="0%" y1="0%" x2="100%" y2="100%">
      <stop offset="0%" stop-color="#E9D08A"/>
      <stop offset="35%" stop-color="#C9A24B"/>
      <stop offset="70%" stop-color="#B8860B"/>
      <stop offset="100%" stop-color="#8B6914"/>
    </linearGradient>
  </defs>

  <!-- outer ring (open on bottom-right like the original) -->
  <path d="M260 40
           a220 220 0 1 0 150 58"
        fill="none" stroke="url(#gold)" stroke-width="14" stroke-linecap="round"/>

  <!-- mother profile + pregnant belly silhouette -->
  <path fill="url(#gold)" d="M214 92
      c-10 8 -16 20 -16 34 c0 10 4 19 11 26
      c-22 10 -38 30 -44 56 c-5 22 -3 44 4 66
      c-14 18 -22 40 -22 64 c0 30 12 57 32 76
      c-6 12 -9 25 -9 39 c0 4 3 7 7 7 c4 0 7 -3 7 -7
      c0 -12 3 -24 9 -34
      c14 10 31 16 49 16 c20 0 39 -8 53 -22
      c20 -20 28 -49 20 -77 c-6 -22 -22 -41 -42 -52
      c8 -10 13 -23 13 -37 c0 -20 -10 -38 -26 -49
      c8 -8 13 -19 13 -31 c0 -23 -19 -42 -42 -42
      c-7 0 -13 2 -19 5 z
      M236 300 a40 40 0 1 0 0.1 0 z"/>
  <!-- belly button accent -->
  <circle cx="236" cy="340" r="9" fill="#fff" opacity="0.85"/>

  <!-- sound waves radiating to the right -->
  <g fill="none" stroke="url(#gold)" stroke-width="8" stroke-linecap="round" opacity="0.95">
    <path d="M320 150 a200 200 0 0 1 0 280"/>
    <path d="M348 180 a165 165 0 0 1 0 220"/>
    <path d="M376 205 a132 132 0 0 1 0 170"/>
    <path d="M404 232 a98 98 0 0 1 0 116"/>
  </g>
</svg>
